<?xml version="1.0"?>
<svg xmlns="http://www.w3.org/2000/svg" xmlns:xlink="http://www.w3.org/1999/xlink" xmlns:svgjs="http://svgjs.com/svgjs" version="1.1" width="512" height="512" x="0" y="0" viewBox="0 0 512 512" style="enable-background:new 0 0 512 512" xml:space="preserve" class=""><g><g xmlns="http://www.w3.org/2000/svg"><g><g><g><g><g><circle cx="256" cy="256" fill="#5394e7" r="256" data-original="#7584f2" style="" class=""/></g></g></g></g></g><path d="m511.921 262.396-122.012-122.013-289.743 243.63 31.478 31.478-9.553 8.798 82.558 82.558c16.59 3.379 33.764 5.153 51.351 5.153 139.247 0 252.527-111.175 255.921-249.604z" fill="#5394e7" data-original="#4253ce" style="" class=""/><g><path d="m265.943 75.918h-143.852v348.372h134.03l55.425-283.907z" fill="#ffffff" data-original="#ffffff" style="" class=""/></g><g><path d="m389.909 140.383-64.466-64.465h-69.322v348.372h133.788z" fill="#e9edf5" data-original="#e9edf5" style=""/></g><g><g><path d="m308.844 222.388h-105.688v-81.647h105.687v81.647zm-75.688-30h45.687v-21.647h-45.687z" fill="#555a66" data-original="#555a66" style=""/></g><g><path d="m308.844 140.741h-52.723v30h22.723v21.647h-22.723v30h52.723z" fill="#333940" data-original="#333940" style=""/></g><g><path d="m157.667 243.765h196.666v92.122h-196.666z" fill="#555a66" data-original="#555a66" style=""/></g><g><path d="m256.121 243.765h98.212v92.122h-98.212z" fill="#333940" data-original="#333940" style=""/></g><g><path d="m157.667 187.8h196.666v96.92h-196.666z" fill="#414952" data-original="#414952" style=""/></g><g><path d="m256.121 187.8h98.212v96.92h-98.212z" fill="#23272b" data-original="#23272b" style=""/></g><g><g><path d="m185.091 273.409h30.558v29.774h-30.558z" fill="#7e8596" data-original="#7e8596" style="" class=""/></g><g><path d="m296.352 273.409h30.558v29.774h-30.558z" fill="#636978" data-original="#636978" style="" class=""/></g></g></g><g><path d="m325.443 140.383h64.466l-64.466-64.465z" fill="#cdd2e1" data-original="#cdd2e1" style="" class=""/></g><g><circle cx="154.073" cy="317.038" fill="#16c532" r="85.979" data-original="#ffce00" style="" class=""/></g><g><path d="m154.073 231.059c-.122 0-.241.009-.362.009v171.939c.121 0 .241.009.362.009 47.485 0 85.979-38.494 85.979-85.979 0-47.484-38.494-85.978-85.979-85.978z" fill="#16c532" data-original="#fdba12" style="" class=""/></g><g><path d="m136.408 366.063-42.837-42.838 21.213-21.213 21.624 21.624 56.954-56.954 21.213 21.213z" fill="#555a66" data-original="#555a66" style=""/></g><g><path d="m193.362 266.682-39.651 39.651v42.427l60.864-60.865z" fill="#333940" data-original="#333940" style=""/></g></g></g></svg>
